<?xml version="1.0" encoding="UTF-8" standalone="no"?>
<!-- Created with Inkscape (http://www.inkscape.org/) -->

<svg
   width="114.68551mm"
   height="36.600773mm"
   viewBox="0 0 114.68549 36.600773"
   version="1.1"
   id="svg1"
   inkscape:version="1.3.2 (091e20e, 2023-11-25, custom)"
   sodipodi:docname="FISRTS CHOICE REALTY.svg"
   xmlns:inkscape="http://www.inkscape.org/namespaces/inkscape"
   xmlns:sodipodi="http://sodipodi.sourceforge.net/DTD/sodipodi-0.dtd"
   xmlns="http://www.w3.org/2000/svg"
   xmlns:svg="http://www.w3.org/2000/svg">
  <sodipodi:namedview
     id="namedview1"
     pagecolor="#ffffff"
     bordercolor="#000000"
     borderopacity="0.25"
     inkscape:showpageshadow="2"
     inkscape:pageopacity="0.0"
     inkscape:pagecheckerboard="0"
     inkscape:deskcolor="#d1d1d1"
     inkscape:document-units="mm"
     inkscape:zoom="2.7758979"
     inkscape:cx="226.23311"
     inkscape:cy="94.924242"
     inkscape:window-width="1920"
     inkscape:window-height="1017"
     inkscape:window-x="1912"
     inkscape:window-y="67"
     inkscape:window-maximized="1"
     inkscape:current-layer="layer1">
    <inkscape:page
       x="0"
       y="0"
       width="114.68549"
       height="36.600773"
       id="page1"
       margin="0 0 0"
       bleed="0" />
  </sodipodi:namedview>
  <defs
     id="defs1" />
  <g
     inkscape:label="Capa 1"
     inkscape:groupmode="layer"
     id="layer1"
     transform="translate(-0.76251604,-149.8344)">
    <g
       id="g8"
       transform="matrix(0.26458333,0,0,0.26458333,1.5490457,150.37315)">
      <path
         id="path2240-3-7"
         style="fill:#1c3a72;fill-opacity:1;stroke-width:13.764"
         d="m 297.30664,114.70508 a 1.7070657,1.6482856 0 0 0 -1.70703,1.64844 1.7070657,1.6482856 0 0 0 0.0156,0.2246 l -3.38085,6.26172 c 0,0 0.37059,1.22181 1.63085,0.48047 0.99001,-0.58235 3.17128,-3.99016 4.07032,-5.43945 a 1.7070657,1.6482856 0 0 0 1.07812,-1.52734 1.7070657,1.6482856 0 0 0 -1.70703,-1.64844 z" />
      <path
         style="fill:#1c3a72;fill-opacity:1;stroke-width:20"
         d="m 406.70567,119.53101 c 0,0 -0.1946,3.60474 -3.23407,3.64181 -3.03947,0.0371 -2.14987,-2.37227 -2.14987,-2.37227 h -4.07735 c 0,0 0.18924,4.75755 5.63415,4.96694 6.74615,0.25943 7.15309,-6.32783 7.15309,-6.32783"
         id="path2249"
         sodipodi:nodetypes="csccsc" />
      <g
         id="g7">
        <path
           id="path2221"
           style="fill:#1c3a72;fill-opacity:1;stroke-width:30.7074"
           d="M 314.1582,43.724609 A 19.515305,23.956081 0 0 0 294.64258,67.680944 19.515305,23.956081 0 0 0 314.1582,91.637279 19.515305,23.956081 0 0 0 333.67188,67.680944 19.515305,23.956081 0 0 0 314.1582,43.724609 Z m -0.10742,8.931591 a 12.318771,15.121951 0 0 1 12.31836,15.121552 12.318771,15.121951 0 0 1 -12.31836,15.12349 12.318771,15.121951 0 0 1 -12.32031,-15.12349 12.318771,15.121951 0 0 1 12.32031,-15.121552 z" />
        <path
           style="fill:#1c3a72;fill-opacity:1;stroke-width:20"
           d="m 337.79644,45.500824 0.31452,44.97662 8.28241,-0.209681 0.18347,-44.714519 z"
           id="path2222"
           sodipodi:nodetypes="ccccc" />
        <path
           style="opacity:1;fill:#1c3a72;fill-opacity:1;stroke-width:20"
           d="m 384.08569,78.210847 c -3.42597,5.918893 -22.41895,8.883991 -22.68486,-10.452824 -0.26315,-19.135938 18.59857,-16.705949 22.90726,-10.15629 0.14409,-3.982782 0.13676,-9.019391 -0.0741,-11.045892 -1.35404,-1.821762 -30.14995,-8.793728 -32.17394,21.350449 2.05308,27.259201 25.18473,25.377272 32.17394,20.979782 0.0778,-5.126993 -0.0619,-6.505423 -0.1483,-10.675225 z"
           id="path2223"
           sodipodi:nodetypes="csccccc" />
        <path
           style="fill:#1c3a72;fill-opacity:1;stroke-width:20"
           d="m 391.4249,45.592105 0.0741,44.850771 22.83312,0.148267 0.2224,-8.080552 -15.12324,-0.148267 0.0741,-11.935495 h 13.9371 l -0.0741,-7.116816 h -13.64056 l 0.0741,-10.304557 14.6043,-0.148267 v -7.042683 z"
           id="path2224"
           sodipodi:nodetypes="ccccccccccccc" />
        <path
           id="path2228"
           style="opacity:1;fill:#1c3a72;fill-opacity:1;stroke-width:20"
           d="m 76.882812,101.39844 c -2.393464,-0.0183 -4.24414,0.29883 -4.24414,0.29883 l -3.44336,17.76953 4.140626,-0.0527 c 0,0 0.191289,-7.04677 1.09375,-7.06445 0.420066,-0.008 1.076171,1.81641 1.076171,1.81641 l 2.63086,5.4121 4.74414,-0.11132 c 0,0 -3.780912,-4.6273 -4.379534,-7.22644 -0.05426,-0.2921 -0.0316,-0.38134 0.486956,-0.67005 7.06121,-3.1136 4.097116,-9.39888 1.373047,-9.87695 -1.189531,-0.20876 -2.390577,-0.28662 -3.478516,-0.29492 z m -0.09961,2.53125 c 1.427892,0.009 3.432898,0.44623 3.021485,2.91015 -0.626915,3.75455 -5.498047,2.97461 -5.498047,2.97461 l 1.138671,-5.77734 c 0,0 0.589948,-0.11212 1.337891,-0.10742 z"
           sodipodi:nodetypes="scccscccccssssccs" />
        <path
           style="fill:#1c3a72;fill-opacity:1;stroke-width:20.2073"
           d="m 86.773267,101.41541 -3.150674,18.08703 10.378691,0.0379 0.593068,-2.87577 -6.375481,0.0756 0.704268,-5.25961 6.486681,0.0379 0.741336,-3.32983 -6.96855,-0.0379 0.704268,-3.89741 6.560816,-0.0379 0.889601,-2.83793 z"
           id="path2227"
           sodipodi:nodetypes="ccccccccccccc" />
        <path
           id="path2232"
           style="opacity:1;fill:#1c3a72;fill-opacity:1;stroke-width:20"
           d="m 105.73242,100.64648 -11.064451,19.04493 4.83789,-0.0215 1.759761,-3.94726 6.72852,0.0371 0.81445,3.98437 4.31446,0.0371 -4.82227,-19.08203 z m 0.4707,5.55664 1.52149,6.22461 -4.66602,0.041 z" />
        <path
           style="fill:#1c3a72;fill-opacity:1;stroke-width:20.3715"
           d="m 117.09387,101.1181 -2.92827,18.45924 9.37789,-0.0385 0.70426,-3.03809 h -5.85654 l 2.5576,-15.34424 z"
           id="path2231"
           sodipodi:nodetypes="ccccccc" />
        <path
           style="fill:#1c3a72;fill-opacity:1;stroke-width:20"
           d="m 129.21605,104.52609 -2.98796,15.14946 4.08879,0.0524 2.72585,-15.14946 4.56057,-0.0524 0.20968,-2.67344 -12.47603,-0.15726 -0.47179,2.88312 z"
           id="path2233" />
        <path
           style="fill:#1c3a72;fill-opacity:1;stroke-width:20"
           d="m 141.58724,110.18748 -0.99599,9.17355 h 3.40732 l 1.41535,-9.17355 7.02432,-8.28241 -3.72184,-0.0524 -4.77025,5.97591 -2.62101,-6.13317 -3.40732,0.0524 z"
           id="path2234" />
        <path
           id="path2235"
           style="fill:#1c3a72;fill-opacity:1;stroke-width:34.6912"
           d="m 197.20086,18.408255 a 9.6863613,10.750126 0 0 0 -5.66197,9.777182 9.6863613,10.750126 0 0 0 9.68649,10.751388 9.6863613,10.750126 0 0 0 9.68579,-10.749857 9.6863613,10.750126 0 0 0 -9.68649,-10.751388 9.6863613,10.750126 0 0 0 -4.02382,0.972675 z m 1.58732,3.642052 a 6.6338943,5.8488057 84.121994 0 1 2.42498,-0.567966 6.6338943,5.8488057 84.121994 0 1 5.94434,6.698366 6.6338943,5.8488057 84.121994 0 1 -5.77056,6.55314 6.6338943,5.8488057 84.121994 0 1 -5.94434,-6.698365 6.6338943,5.8488057 84.121994 0 1 3.34558,-5.985175 z"
           transform="matrix(0.90510346,0.42519141,-0.4684798,0.88347421,0,0)" />
        <path
           id="path2235-5"
           style="fill:#1c3a72;fill-opacity:1;stroke-width:22.0431"
           d="m 238.7865,106.84639 a 6.1229503,6.8662143 50.493767 0 0 -6.31175,3.87243 6.1229503,6.8662143 50.493767 0 0 2.42613,8.4635 6.1229503,6.8662143 50.493767 0 0 8.97665,-3.34315 6.1229503,6.8662143 50.493767 0 0 -2.42611,-8.46351 6.1229503,6.8662143 50.493767 0 0 -2.66492,-0.52927 z m -0.17529,2.41936 a 3.7406505,4.1878633 42.426276 0 1 1.60047,0.32896 3.7406505,4.1878633 42.426276 0 1 1.45821,5.24904 3.7406505,4.1878633 42.426276 0 1 -5.39336,2.07339 3.7406505,4.1878633 42.426276 0 1 -1.45822,-5.24903 3.7406505,4.1878633 42.426276 0 1 3.7929,-2.40236 z" />
        <path
           id="path2235-5-8"
           style="fill:#1c3a72;fill-opacity:1;stroke-width:21.7779"
           d="m 207.40039,107.07422 a 6.0555359,6.7766134 44.370412 0 0 -6.16016,3.87109 6.0555359,6.7766134 44.370412 0 0 2.36719,8.46485 6.0555359,6.7766134 44.370412 0 0 5.70117,-0.29883 l -0.25586,0.7207 3.51172,-0.0508 2.14844,-11.95313 h -3.56445 l -0.15625,0.38282 a 6.0555359,6.7766134 44.370412 0 0 -0.99024,-0.60742 6.0555359,6.7766134 44.370412 0 0 -2.60156,-0.5293 z m -0.16992,2.41797 a 3.6870113,4.147175 36.486126 0 1 1.56055,0.33008 3.6870113,4.147175 36.486126 0 1 1.42382,5.24804 3.6870113,4.147175 36.486126 0 1 -5.26367,2.07422 3.6870113,4.147175 36.486126 0 1 -1.42383,-5.25 3.6870113,4.147175 36.486126 0 1 3.70313,-2.40234 z" />
        <path
           id="path2235-5-8-1"
           style="fill:#1c3a72;fill-opacity:1;stroke-width:21.7779"
           d="m 287.07031,99.265625 -3.57617,0.03711 -1.73437,8.597655 0.0137,0.0371 h -0.0254 l -0.15625,0.38281 a 6.0555359,6.7766134 44.370412 0 0 -0.99024,-0.60742 6.0555359,6.7766134 44.370412 0 0 -2.60156,-0.5293 6.0555359,6.7766134 44.370412 0 0 -6.16016,3.8711 6.0555359,6.7766134 44.370412 0 0 2.36719,8.46484 6.0555359,6.7766134 44.370412 0 0 5.70117,-0.29883 l -0.25586,0.72071 3.51172,-0.0508 2.14844,-11.95312 h -0.002 z m -9.24023,10.335935 a 3.6870113,4.147175 36.486126 0 1 1.56054,0.33008 3.6870113,4.147175 36.486126 0 1 1.42383,5.24805 3.6870113,4.147175 36.486126 0 1 -5.26367,2.07422 3.6870113,4.147175 36.486126 0 1 -1.42383,-5.25 3.6870113,4.147175 36.486126 0 1 3.70313,-2.40235 z" />
        <path
           id="path2235-5-8-4"
           style="fill:#1c3a72;fill-opacity:1;stroke-width:21.7779"
           d="m 390.39317,106.96085 a 6.0555359,6.7766134 44.370412 0 0 -6.16016,3.87109 6.0555359,6.7766134 44.370412 0 0 2.36719,8.46485 6.0555359,6.7766134 44.370412 0 0 5.70117,-0.29883 l -0.25586,0.7207 3.51172,-0.0508 2.14844,-11.95313 h -3.56445 l -0.15625,0.38282 a 6.0555359,6.7766134 44.370412 0 0 -0.99024,-0.60742 6.0555359,6.7766134 44.370412 0 0 -2.60156,-0.5293 z m -0.16992,2.41797 a 3.6870113,4.147175 36.486126 0 1 1.56055,0.33008 3.6870113,4.147175 36.486126 0 1 1.42382,5.24804 3.6870113,4.147175 36.486126 0 1 -5.26367,2.07422 3.6870113,4.147175 36.486126 0 1 -1.42383,-5.25 3.6870113,4.147175 36.486126 0 1 3.70313,-2.40234 z" />
        <path
           id="path2235-5-8-4-3"
           style="fill:#1c3a72;fill-opacity:1;stroke-width:21.7779"
           d="m 404.87723,106.78354 c -2.50103,0.0485 -4.90824,1.56123 -6.16016,3.87109 -1.76717,3.26041 -0.70721,7.05072 2.36719,8.46485 1.74207,0.80061 3.85187,0.69002 5.70117,-0.29883 l -0.0986,0.76002 3.35446,-0.0901 2.14844,-11.95313 h -3.56445 l -0.15625,0.38282 c -0.30632,-0.23605 -0.63791,-0.43945 -0.99024,-0.60742 -0.79805,-0.36681 -1.68529,-0.54733 -2.60156,-0.5293 z m -0.16992,2.41797 c 0.54976,-0.0103 1.08195,0.10229 1.56055,0.33008 1.8466,0.87649 2.48403,3.22601 1.42382,5.24804 -1.06048,2.02186 -3.41699,2.95047 -5.26367,2.07422 -1.84774,-0.8764 -2.48534,-3.22738 -1.42383,-5.25 0.75217,-1.43387 2.19954,-2.37283 3.70313,-2.40234 z"
           sodipodi:nodetypes="ssccccccccsscccccc" />
        <path
           id="path2235-5-9"
           style="fill:#1c3a72;fill-opacity:1;stroke-width:22.0431"
           d="m 339.81204,107.00122 a 6.1229503,6.8662143 50.493767 0 0 -6.31175,3.87243 6.1229503,6.8662143 50.493767 0 0 2.42613,8.4635 6.1229503,6.8662143 50.493767 0 0 8.97665,-3.34315 6.1229503,6.8662143 50.493767 0 0 -2.42611,-8.46351 6.1229503,6.8662143 50.493767 0 0 -2.66492,-0.52927 z m -0.17529,2.41936 a 3.7406505,4.1878633 42.426276 0 1 1.60047,0.32896 3.7406505,4.1878633 42.426276 0 1 1.45821,5.24904 3.7406505,4.1878633 42.426276 0 1 -5.39336,2.07339 3.7406505,4.1878633 42.426276 0 1 -1.45822,-5.24903 3.7406505,4.1878633 42.426276 0 1 3.7929,-2.40236 z" />
        <path
           style="fill:#1c3a72;fill-opacity:1;stroke-width:20"
           d="m 179.40308,119.68854 h 3.07654 c 0,0 0.92536,-6.26016 1.77921,-8.59948 0.23896,-0.74982 2.8912,-3.50282 4.59627,-0.0371 -0.35213,5.54148 -1.7792,8.63655 -1.7792,8.63655 h 3.37307 c 0,0 1.6173,-6.38484 1.10301,-9.7066 -0.16164,-1.04398 -0.36186,-1.42092 -2.28914,-2.19182 -0.139,-0.0556 -2.67133,-0.5885 -4.89281,1.03786 -0.40649,0.2976 0.0927,-0.96373 0.0927,-0.96373 l -3.72521,-0.0185 -1.72214,11.80362 z"
           id="path2236"
           sodipodi:nodetypes="ccccccssccccc" />
        <path
           style="fill:#1c3a72;fill-opacity:1;stroke-width:20"
           d="m 195.36163,110.75546 -1.36883,8.65826 3.42472,0.0153 1.22095,-8.7455 2.6516,-0.0195 0.46426,-2.91106 -2.52317,-0.0524 0.41037,-3.83959 -3.03948,0.0371 -0.63013,3.89201 -2.25285,-0.0371 -0.67542,3.00241 z"
           id="path2237"
           sodipodi:nodetypes="ccccccccccccc" />
        <path
           style="fill:#1c3a72;fill-opacity:1;stroke-width:20"
           d="m 265.90263,110.57997 -1.36883,8.65826 3.42472,0.0153 1.22095,-8.7455 2.6516,-0.0195 0.46426,-2.91106 -2.52317,-0.0524 0.41037,-3.83959 -3.03948,0.0371 -0.63013,3.89201 -2.25285,-0.0371 -0.67542,3.00241 z"
           id="path2237-9"
           sodipodi:nodetypes="ccccccccccccc" />
        <path
           style="fill:#1c3a72;fill-opacity:1;stroke-width:20"
           d="m 224.46374,110.55442 c 0.68386,-1.58258 1.04841,-2.77828 1.04841,-2.77828 0,0 -3.93153,-0.73388 -5.08477,1.04841 0.21822,-0.60851 0.0271,-0.88617 0.0271,-0.88617 l -3.18774,0.0185 c -1.59899,5.86125 -1.57887,7.97266 -1.71448,11.66621 l 3.25006,-0.10484 c 0,0 -0.73674,-10.51828 5.66142,-8.96383 z"
           id="path2238"
           sodipodi:nodetypes="cccccccc" />
        <path
           style="fill:#1c3a72;fill-opacity:1;stroke-width:20"
           d="m 383.02435,110.34732 c 0.68386,-1.58258 1.04841,-2.77828 1.04841,-2.77828 0,0 -3.93153,-0.73388 -5.08477,1.04841 0.21822,-0.60851 0.0271,-0.88617 0.0271,-0.88617 l -3.18774,0.0185 c -1.59899,5.86125 -1.57887,7.97266 -1.71448,11.66621 l 3.25006,-0.10484 c 0,0 -0.73674,-10.51828 5.66142,-8.96383 z"
           id="path2238-9"
           sodipodi:nodetypes="cccccccc" />
        <path
           style="fill:#1c3a72;fill-opacity:1;stroke-width:20"
           d="m 332.21122,110.52103 c 0.68386,-1.58258 1.04841,-2.77828 1.04841,-2.77828 0,0 -3.93153,-0.73388 -5.08477,1.04841 0.21822,-0.60851 0.0271,-0.88617 0.0271,-0.88617 l -3.18774,0.0185 c -1.59899,5.86125 -1.57887,7.97266 -1.71448,11.66621 l 3.25006,-0.10484 c 0,0 -0.73674,-10.51828 5.66142,-8.96383 z"
           id="path2238-7"
           sodipodi:nodetypes="cccccccc" />
        <path
           style="fill:#1c3a72;fill-opacity:1;stroke-width:20"
           d="m 226.62612,107.71598 -2.07573,11.86136 h 3.7808 l 2.35056,-11.922 z"
           id="path2239"
           sodipodi:nodetypes="ccccc" />
        <ellipse
           style="fill:#1c3a72;fill-opacity:1;stroke-width:20"
           id="path2240"
           cx="229.49609"
           cy="102.32445"
           rx="2.411334"
           ry="2.4637542" />
        <ellipse
           style="fill:#1c3a72;fill-opacity:1;stroke-width:20"
           id="path2240-3"
           cx="288.32822"
           cy="117.39443"
           rx="2.411334"
           ry="2.4637542" />
        <path
           style="fill:#1c3a72;fill-opacity:1;stroke-width:20"
           d="m 256.38771,101.74781 -3.0928,17.71806 8.91145,-0.0524 0.7863,-2.67343 -5.50413,0.0524 3.0928,-15.04463 z"
           id="path2241" />
        <path
           id="path2244"
           style="opacity:1;fill:#1c3a72;fill-opacity:1;stroke-width:20"
           d="m 316.07227,101.28906 c -2.4662,0.0351 -4.4336,0.56446 -4.4336,0.56446 l -2.93555,17.61328 c 0,0 5.12093,0.34555 7.75782,-0.0527 2.39636,-0.25715 8.93663,-5.27098 2.88281,-9.64648 3.56458,-3.66943 2.15543,-6.22197 0.26367,-8.125 -1.18909,-0.28345 -2.41417,-0.36949 -3.53515,-0.35352 z m -0.88477,2.44532 c 1.10189,-0.002 3.2728,0.28813 3.00586,2.6289 -0.35593,3.12103 -4.26953,2.53125 -4.26953,2.53125 l 0.64844,-5.12695 c 0,0 0.24793,-0.0327 0.61523,-0.0332 z m -0.96094,7.37695 c 1.37774,-0.002 4.09158,0.34034 3.75782,3.11719 -0.44503,3.70246 -5.33985,3.00586 -5.33985,3.00586 l 0.8125,-6.08399 c 0,0 0.31029,-0.0384 0.76953,-0.0391 z" />
        <path
           style="fill:#1c3a72;fill-opacity:1;stroke-width:20"
           d="m 350.32489,99.546157 -3.14522,19.919713 3.04038,-0.10484 0.41936,-3.51216 10.43164,-8.02031 h -4.6654 l -4.66541,3.66943 2.30649,-12.161514 z"
           id="path2245" />
        <path
           style="fill:#1c3a72;fill-opacity:1;stroke-width:20"
           d="m 350.90151,114.01416 3.98395,5.66139 4.87509,-0.15726 -5.71382,-7.81062 z"
           id="path2246" />
        <path
           id="path2248"
           style="opacity:1;fill:#1c3a72;fill-opacity:1;stroke-width:20"
           d="m 367.39258,107.20508 c -6.08076,0.0524 -6.89812,6.23176 -6.8457,7.75195 0.0524,1.52019 1.79583,5.11153 5.89257,5.05274 5.34906,-0.0768 6.07813,-4.16993 6.07813,-4.16993 l -4.05469,0.01 c 0,0 0.61947,1.75194 -1.88867,1.57227 -3.20486,-0.2296 -1.93945,-3.14649 -1.93945,-3.14649 l 8.24218,0.0371 c 0,0 0.59638,-7.15984 -5.48437,-7.10742 z m 0.17187,2.45508 c 2.35094,-0.0327 2.6543,2.67578 2.6543,2.67578 h -5.45117 c 0,0 0.0846,-2.54158 2.68359,-2.67188 0.0384,-0.002 0.076,-0.003 0.11328,-0.004 z" />
        <path
           id="path2248-9"
           style="fill:#1c3a72;fill-opacity:1;stroke-width:20"
           d="m 419.77122,107.28223 c -6.08076,0.0524 -6.89812,6.23176 -6.8457,7.75195 0.0524,1.52019 1.79583,5.11153 5.89257,5.05274 5.34906,-0.0768 6.07813,-4.16993 6.07813,-4.16993 l -4.05469,0.01 c 0,0 0.61947,1.75194 -1.88867,1.57227 -3.20486,-0.2296 -1.93945,-3.14649 -1.93945,-3.14649 l 8.24218,0.0371 c 0,0 0.59638,-7.15984 -5.48437,-7.10742 z m 0.17187,2.45508 c 2.35094,-0.0327 2.6543,2.67578 2.6543,2.67578 h -5.45117 c 0,0 0.0846,-2.54158 2.68359,-2.67188 0.0384,-0.002 0.076,-0.003 0.11328,-0.004 z" />
        <path
           style="fill:#1c3a72;fill-opacity:1;stroke-width:20"
           d="M 4.2984649,37.637778 4.6129867,90.477444 H 19.500353 l 0.209681,-23.274615 20.832575,-0.178974 0.03071,-9.571202 -21.177803,0.104841 V 46.444389 l 23.484296,-0.104841 -0.05242,-8.64935 z"
           id="path2211"
           sodipodi:nodetypes="ccccccccccc" />
        <path
           style="fill:#1c3a72;fill-opacity:1;stroke-width:20"
           d="M 18.60751,26.465661 57.008665,26.613928 33.129632,121.0909 54.936478,120.98606 81.985355,5.6613928 Z"
           id="path2212" />
        <path
           style="fill:#e72129;fill-opacity:1;stroke-width:20"
           d="M 85.445095,5.6613928 82.090196,27.782761 151.18016,27.67792 Z"
           id="path2214" />
        <path
           style="opacity:1;fill:#1c3a72;fill-opacity:1;stroke-width:20"
           d="m 136.91803,73.800356 c 4.93824,2.85109 4.63698,6.896878 2.41326,9.120604 -4.72885,4.728852 -7.37538,3.270946 -10.41313,1.517102 -4.01944,-2.320623 -5.93068,-5.337613 -5.93068,-5.337613 l -6.67201,5.189346 c 0,0 6.01807,7.02599 10.23042,8.154685 6.40928,1.717362 13.12333,1.545229 18.01444,-2.001604 1.89994,-1.377763 8.96418,-5.951557 7.04269,-15.493903 -0.85971,-4.269432 -1.50482,-5.35008 -9.63736,-8.821887 -8.13254,-3.471807 -11.49533,-3.91759 -12.30616,-6.829276 -0.81083,-2.911686 2.98249,-5.847553 6.30135,-5.847553 4.52567,0 8.97015,3.336008 8.97015,3.336008 l 4.81868,-5.560013 c 0,0 -5.92552,-3.775147 -9.26669,-4.670411 -6.6342,-1.777629 -10.82349,-0.148267 -10.82349,-0.148267 0,0 -7.11793,2.323224 -9.72421,7.653739 -1.62553,3.32462 -1.98979,7.943437 -0.0614,11.102038 3.31888,5.436153 10.91887,5.100579 17.04414,8.637005 z"
           id="path2217"
           sodipodi:nodetypes="sssccssszzsccscsas" />
        <path
           id="path2216"
           style="opacity:1;fill:#1c3a72;fill-opacity:1;stroke-width:20"
           d="m 98.449219,47.964844 c -3.929068,0 -21.144532,0.07422 -21.144531,0.07422 l 0.002,0.01758 0.27539,43.574218 10.798828,-0.208984 0.314453,-17.509766 13.208991,17.71875 h 12.79101 L 100.22852,74.123047 c 0,0 -0.629259,-1.46875 0.94336,-1.46875 1.57259,0 9.8063,-2.747087 9.50976,-12.087891 -0.29653,-9.340801 -8.30335,-12.601562 -12.232421,-12.601562 z m -2.914063,6.394531 c 1.048404,0 4.901644,1.626246 5.111324,6.396484 0.20968,4.77024 -4.874996,6.867188 -4.874996,6.867188 l -7.33789,0.103515 -0.158203,-13.314453 c 0,0 6.211361,-0.05273 7.259765,-0.05273 z" />
        <path
           style="fill:#1c3a72;fill-opacity:1;stroke-width:20"
           d="m 164.20571,54.488126 0.0741,37.511553 h 11.19416 l -0.29654,-37.808087 11.7131,0.148267 -0.14827,-7.487484 h -33.28595 l 0.0741,7.784018 z"
           id="path2218" />
        <path
           style="opacity:1;fill:#1c3a72;fill-opacity:1;stroke-width:20"
           d="m 246.54278,75.719266 c -5.81666,7.974457 -28.61216,9.204674 -28.684,-10.508408 -0.0935,-25.670611 24.85025,-20.780913 28.77502,-14.394962 0.0784,-6.679639 0.0896,-7.473328 0.0741,-11.562082 -0.0106,-2.81332 -38.66727,-12.114696 -40.17194,24.384435 -0.0169,28.568573 31.74055,30.276832 39.73459,24.847224 0.0285,-2.435585 0.0779,-8.435778 0.27219,-12.766207 z"
           id="path2219"
           sodipodi:nodetypes="cscsccc" />
        <path
           style="fill:#1c3a72;fill-opacity:1;stroke-width:20"
           d="m 256.33513,45.462371 0.0185,45.202905 9.26669,-0.07413 -0.14827,-20.312581 15.9387,-0.07413 0.14827,20.386714 8.82189,-0.07413 0.0741,-45.147304 h -8.97015 l 0.14826,18.310975 -16.1611,-0.148267 -0.0741,-18.088575 z"
           id="path2220"
           sodipodi:nodetypes="ccccccccccccc" />
      </g>
    </g>
  </g>
</svg>
