<?xml version="1.0" encoding="UTF-8" standalone="no"?>
<!-- Created with Inkscape (http://www.inkscape.org/) -->

<svg
   width="35.193203mm"
   height="19.730108mm"
   viewBox="0 0 35.193198 19.730108"
   version="1.1"
   id="svg1"
   inkscape:version="1.3.2 (091e20e, 2023-11-25, custom)"
   sodipodi:docname="REINA REAL ESTATE2-3.svg"
   xmlns:inkscape="http://www.inkscape.org/namespaces/inkscape"
   xmlns:sodipodi="http://sodipodi.sourceforge.net/DTD/sodipodi-0.dtd"
   xmlns="http://www.w3.org/2000/svg"
   xmlns:svg="http://www.w3.org/2000/svg">
  <sodipodi:namedview
     id="namedview1"
     pagecolor="#ffffff"
     bordercolor="#000000"
     borderopacity="0.25"
     inkscape:showpageshadow="2"
     inkscape:pageopacity="0.0"
     inkscape:pagecheckerboard="0"
     inkscape:deskcolor="#d1d1d1"
     inkscape:document-units="mm"
     inkscape:zoom="2.7758979"
     inkscape:cx="205.51909"
     inkscape:cy="49.173278"
     inkscape:window-width="1920"
     inkscape:window-height="1017"
     inkscape:window-x="1912"
     inkscape:window-y="67"
     inkscape:window-maximized="1"
     inkscape:current-layer="layer1"
     showgrid="false" />
  <defs
     id="defs1" />
  <g
     inkscape:label="Capa 1"
     inkscape:groupmode="layer"
     id="layer1"
     transform="translate(-0.47657252,-132.67779)">
    <g
       id="g40"
       transform="matrix(0.08209005,0,0,0.08255901,-30.529681,115.26053)">
      <path
         style="fill:#ffffff;fill-opacity:1;stroke-width:150;stroke-dasharray:none"
         d="m 388.85381,380.88593 0.10484,6.50011 h 105.36481 l -0.10484,-31.2425 -5.55655,0.10484 0.10484,25.05691 z"
         id="path2250" />
      <path
         style="fill:#ffffff;fill-opacity:1;stroke-width:150.192;stroke-dasharray:none"
         d="m 795.15379,381.1382 -0.10511,6.50011 H 689.41415 l 0.10511,-31.2425 5.57077,0.10484 -0.10511,25.05691 z"
         id="path2250-0" />
      <path
         style="fill:#ffffff;fill-opacity:1;stroke-width:150;stroke-dasharray:none"
         d="m 480.58934,362.32914 -0.10484,-5.03235 H 453.85499 L 591.7436,229.06654 729.58579,357.08711 H 701.4885 v 5.34687 h 42.04109 l -98.23565,-91.42101 -0.20968,-33.86352 h -5.24203 l -0.10484,29.6699 -48.64605,-46.33955 -151.28499,141.95418 z"
         id="path2251" />
      <path
         style="fill:#ffffff;fill-opacity:1;stroke-width:150;stroke-dasharray:none"
         d="m 636.85384,231.29054 0.11117,4.11441 11.67603,0.1112 0.0371,-4.18854 z"
         id="path2252"
         sodipodi:nodetypes="ccccc" />
      <path
         id="path2254"
         style="opacity:1;fill:#ffffff;fill-opacity:1;stroke-width:150;stroke-dasharray:none"
         d="m 400.84692,408.01132 c -5.14538,0.0147 -12.51758,0.13282 -12.51758,0.13282 v 30.08984 l 5.66211,-0.10547 0.20898,-10.58789 h 5.45117 l 8.80664,10.48438 7.02539,-0.10547 -9.22656,-10.27539 c 0,0 -0.83893,-0.83846 0.94336,-1.25782 1.78229,-0.41936 6.18687,-2.61972 6.08203,-8.91015 -0.10484,-6.29044 -4.92893,-9.33266 -8.38867,-9.4375 -0.86493,-0.0262 -2.33175,-0.0323 -4.04687,-0.0274 z m -7.11719,5.375 9.53906,0.0527 c 0,0 4.50844,0.26146 4.61328,4.45508 0.10484,4.19362 -4.14062,5.55664 -4.14062,5.55664 l -9.90821,-0.0527 z" />
      <path
         style="fill:#ffffff;fill-opacity:1;stroke-width:150;stroke-dasharray:none"
         d="m 417.08506,408.46962 0.0741,29.431 h 21.86938 v -5.33761 l -17.0507,-0.14827 0.0741,-7.04268 h 16.90244 l 0.0741,-5.18935 h -16.75417 v -6.82028 h 16.75417 l 0.0741,-5.04108 z"
         id="path2255"
         sodipodi:nodetypes="ccccccccccccc" />
      <path
         style="fill:#ffffff;fill-opacity:1;stroke-width:150;stroke-dasharray:none"
         d="m 444.14379,408.24722 4.96695,-0.0741 0.0741,29.80166 h -5.18934 z"
         id="path2256" />
      <path
         style="fill:#ffffff;fill-opacity:1;stroke-width:150;stroke-dasharray:none"
         d="m 455.11555,408.54375 0.0741,29.431 h 5.33761 l -0.14827,-20.23844 15.64217,20.31258 h 4.02306 l 0.12842,-29.94994 -6.37548,-0.0741 0.2224,18.16271 -14.01124,-17.94031 -5.04107,-0.29654 z"
         id="path2257"
         sodipodi:nodetypes="cccccccccccc" />
      <path
         id="path2259"
         style="opacity:1;fill:#ffffff;fill-opacity:1;stroke-width:150;stroke-dasharray:none"
         d="m 495.31957,408.45859 -13.41992,28.93555 -0.41992,0.52539 6.13476,0.10547 2.30664,-5.50586 15.77735,0.0527 2.46484,5.18945 6.55078,-0.0527 -13.4707,-29.25 z m 2.77735,6.08203 5.87109,12.42188 -11.16406,0.10546 z" />
      <path
         id="text2268"
         style="font-style:normal;font-variant:normal;font-weight:normal;font-stretch:normal;font-size:113.462px;font-family:'Monotype Corsiva';-inkscape-font-specification:'Monotype Corsiva';opacity:1;fill:#ffffff;fill-opacity:1;stroke-width:1276.47;stroke-dasharray:none"
         d="m 582.24535,332.22422 c -2.20214,2.97227 -4.22662,6.16847 -5.31835,9.05468 0.51592,1.49227 0.99198,2.81339 1.38281,3.76367 2.28418,5.55406 4.95582,10.3135 8.01367,14.2754 3.09469,3.96189 6.2638,6.81245 9.50586,8.55273 3.2789,1.74027 6.70371,2.60937 10.27734,2.60937 3.94205,0 7.16665,-1.03585 9.67187,-3.10937 2.50523,-2.07352 3.75782,-4.25901 3.75782,-6.55469 0,-0.88864 -0.31315,-1.64788 -0.93946,-2.27734 -0.58946,-0.62947 -1.32673,-0.94336 -2.21094,-0.94336 -0.88419,0 -1.675,0.33351 -2.37499,0.99999 -0.51579,0.48136 -1.06874,1.74086 -1.6582,3.77735 -0.99472,3.22136 -3.26204,4.83203 -6.79884,4.83203 -3.42626,0 -6.61126,-1.66756 -9.55859,-4.99999 -3.97889,-4.55434 -7.82978,-12.40368 -11.55078,-23.54884 -0.86087,-2.57549 -1.57769,-4.66526 -2.19922,-6.43163 z" />
      <path
         id="path6"
         style="font-style:normal;font-variant:normal;font-weight:normal;font-stretch:normal;font-size:113.462px;font-family:'Monotype Corsiva';-inkscape-font-specification:'Monotype Corsiva';opacity:1;fill:#ffffff;fill-opacity:1;stroke-width:1276.47;stroke-dasharray:none"
         d="m 576.98364,286.66952 c -7.03673,0 -13.74165,1.61069 -20.11524,4.83203 -6.33674,3.22136 -11.06964,7.29416 -14.20117,12.21876 -3.13154,4.92459 -4.69923,10.23923 -4.69923,15.94141 0,4.44323 0.99495,8.18252 2.98438,11.21875 1.54735,2.33269 3.3172,3.49804 5.30665,3.49804 0.81051,0 1.49229,-0.27663 2.04491,-0.83203 0.58947,-0.59243 0.88282,-1.27712 0.88282,-2.05469 0,-0.62946 -0.16452,-1.22193 -0.4961,-1.77734 -0.33157,-0.55541 -1.21747,-1.44412 -2.65429,-2.66601 -2.83679,-2.48082 -4.25391,-5.44321 -4.25391,-8.88673 0,-4.55433 1.38143,-8.90569 4.14453,-13.05274 2.76312,-4.18404 6.90737,-7.68202 12.43359,-10.49608 5.52624,-2.81406 11.18073,-4.22266 16.96485,-4.22266 4.5315,0 8.10691,1.11236 10.72266,3.33399 2.65258,2.22161 3.97852,5.05257 3.97852,8.49609 0,4.44323 -1.63908,8.29435 -4.91798,11.55274 -3.27889,3.22134 -7.22097,4.83203 -11.82617,4.83203 -1.21577,0 -2.70817,-0.18443 -4.47656,-0.55469 l 4.14453,-16.38477 c 0.69999,-2.73999 1.27079,-4.81368 1.71289,-6.22071 -5.19465,1.33298 -9.65206,2.01767 -13.37304,2.0547 l -0.71875,2.66601 c 1.36313,-0.037 2.26493,0.11207 2.70703,0.44531 0.47893,0.33325 0.71874,0.83351 0.71874,1.5 0,0.70352 -0.47961,3.03616 -1.43749,6.99805 l -7.73633,31.04687 c -0.99473,3.99893 -2.41183,6.79457 -4.25391,8.38672 -1.21576,0.99974 -3.84977,2.01793 -7.90234,3.05469 l -0.83008,3.10938 c 3.86837,-0.85163 7.2773,-1.27734 10.2246,-1.27734 1.62104,0 3.66444,0.12947 6.13282,0.38866 2.79996,0.25919 4.91865,0.38868 6.35547,0.38868 0.60663,0 1.34033,-0.0595 2.16601,-0.16211 -0.25115,-0.86902 -0.40061,-1.79603 -0.49218,-2.56836 -0.49154,0.04 -0.96081,0.0644 -1.39649,0.0644 -1.0684,0 -2.48746,-0.12949 -4.25585,-0.38868 l 7.4043,-29.49218 c 0.62629,-0.0741 1.10592,-0.11133 1.43749,-0.11133 l 1.38086,0.11133 c 0.25627,0.68685 0.90339,2.79582 1.75391,5.65039 1.32627,-1.71247 3.02143,-3.64267 5.15234,-5.54297 -0.0211,-0.0425 -0.0314,-0.0646 -0.0527,-0.10742 0.0769,-0.0125 0.14805,-0.0301 0.22461,-0.043 4.00588,-3.53105 9.43032,-6.86522 16.40039,-8.1582 3.49069,-3.7432 5.25781,-7.76446 5.25781,-12.07032 0,-4.85053 -2.11675,-8.51722 -6.35351,-10.99804 -4.23679,-2.48081 -9.63558,-3.72071 -16.19336,-3.72071 z" />
      <path
         id="path3"
         style="-inkscape-font-specification:'Monotype Corsiva';opacity:1;fill:#ffffff;stroke-width:1284.6"
         d="m 587.32348,365.12265 -0.65625,2.56055 c -1.01462,3.97062 -2.46093,6.74723 -4.33985,8.32812 -1.24007,0.99266 -3.92693,2.00378 -8.06055,3.03321 l -0.8457,3.08789 c 3.94574,-0.8456 7.42147,-1.26953 10.42774,-1.26953 1.65345,0 3.74008,0.12936 6.25781,0.38672 2.85596,0.25735 5.01686,0.38671 6.48243,0.38671 0.52036,0 1.11875,-0.037 1.79686,-0.10937 -0.0144,-0.83912 -0.0256,-1.71451 -0.0449,-2.60352 -0.51943,0.0423 -1.01205,0.0645 -1.4707,0.0645 -1.08978,0 -2.53609,-0.12741 -4.33986,-0.38476 l 2.06837,-8.01953 c -3.16632,-1.46458 -5.56637,-3.56145 -7.27539,-5.46094 z" />
      <path
         id="path1"
         style="-inkscape-font-specification:'Monotype Corsiva';opacity:1;fill:#ffffff;stroke-width:1048.93"
         d="m 611.95434,372.68906 c -0.27467,0.29046 -0.5507,0.5746 -0.83203,0.8418 2.70523,3.61979 5.52641,6.58547 8.46875,8.8789 3.15892,2.43078 6.14977,3.93595 8.97265,4.51367 2.85099,0.56814 5.63885,0.38712 8.36328,-0.54297 3.00533,-1.02597 5.25468,-2.71284 6.7461,-5.05859 1.49144,-2.34576 2.00435,-4.45682 1.54101,-6.33203 -0.17935,-0.72586 -0.57126,-1.26405 -1.17578,-1.61524 -0.57645,-0.36072 -1.20092,-0.42535 -1.875,-0.19531 -0.67408,0.23014 -1.21023,0.70699 -1.60937,1.4336 -0.29607,0.52741 -0.46359,1.70068 -0.50196,3.51757 -0.10818,2.89022 -1.51067,4.79629 -4.20703,5.7168 -2.61209,0.89174 -5.37927,0.35927 -8.29883,-1.5957 -3.17778,-2.15834 -6.72559,-6.09971 -10.63671,-11.78516 -1.5516,1.10038 -3.54357,1.81313 -4.95508,2.22266 z" />
      <path
         id="path2"
         style="-inkscape-font-specification:'Monotype Corsiva';opacity:1;fill:#ffffff;stroke-width:1284.6"
         d="m 609.27074,314.57578 c -7.17746,0 -14.01652,1.60026 -20.51758,4.79883 -6.46346,3.19856 -11.29217,7.24109 -14.48633,12.13085 -3.19415,4.88977 -4.79101,10.16628 -4.79101,15.82813 0,4.41181 1.01569,8.12588 3.04493,11.14062 1.57828,2.31621 3.38092,3.47461 5.41015,3.47461 0.82672,0 1.52226,-0.27665 2.08593,-0.82812 0.60126,-0.58824 0.90235,-1.26895 0.90235,-2.04101 0,-0.62501 -0.1696,-1.2122 -0.50781,-1.76368 -0.3382,-0.55147 -1.23953,-1.43518 -2.70508,-2.64844 -2.89354,-2.46325 -4.34179,-5.40311 -4.34179,-8.82226 0,-4.52213 1.41015,-8.84324 4.22851,-12.96094 2.81838,-4.15446 7.04684,-7.62772 12.6836,-10.42187 5.63674,-2.79416 11.40488,-4.19142 17.30468,-4.19142 4.62214,0 8.26553,1.10269 10.9336,3.30861 2.70563,2.2059 4.05859,5.01833 4.05859,8.43749 0,4.41183 -1.67116,8.23539 -5.01562,11.4707 -3.34448,3.19857 -7.36523,4.79883 -12.06251,4.79883 -1.24008,0 -2.76264,-0.18508 -4.5664,-0.55273 l 4.22851,-16.26758 c 0.71398,-2.72061 1.29516,-4.78065 1.74609,-6.17773 -5.29854,1.32351 -9.84522,2.00422 -13.64062,2.04101 l -0.73243,2.64649 c 1.39041,-0.0368 2.31079,0.11051 2.76173,0.4414 0.48852,0.33089 0.73242,0.82846 0.73242,1.49024 0,0.69852 -0.48781,3.01339 -1.46484,6.94727 l -2.96485,11.58397 c 2.1327,4.4076 4.56846,7.29355 6.38476,9.03712 l 2.10353,-8.15626 c 0.63882,-0.0735 1.12859,-0.11132 1.46679,-0.11132 l 1.4082,0.11132 c 0.33821,0.88237 1.1843,3.56543 2.53711,8.05079 0.71175,2.32113 1.3481,4.33012 1.95117,6.19336 0.89037,-1.1869 2.66719,-3.42474 5.87305,-7.2832 -0.0124,-0.0313 -0.0347,-0.0924 -0.0469,-0.12305 -0.48852,-1.17649 -1.59562,-3.4555 -3.32422,-6.8379 6.95198,-1.10295 12.39997,-3.60289 16.3457,-7.49999 3.9833,-3.89712 5.97461,-8.1068 5.97461,-12.6289 0,-4.81624 -2.16093,-8.45666 -6.48242,-10.91994 -4.32151,-2.46324 -9.82669,-3.6953 -16.51563,-3.6953 z" />
      <path
         d="m 558.45104,430.70322 h -2.33143 l -2.8878,-7.70963 q -0.42389,-1.11273 -0.95377,-2.09299 -0.50337,-0.98026 -1.19221,-1.69559 -0.68883,-0.74182 -1.58961,-1.16571 -0.87429,-0.4239 -2.0665,-0.4239 h -10.14703 v 13.08782 h -2.11948 v -29.01045 h 13.06132 q 1.82806,0 3.52364,0.34442 1.72208,0.31792 3.04676,1.16572 1.35117,0.84779 2.14598,2.35792 0.79481,1.48364 0.79481,3.81507 0,1.45715 -0.37091,2.72884 -0.34442,1.2452 -1.08624,2.25195 -0.71532,0.98026 -1.85455,1.69559 -1.11273,0.68883 -2.62286,1.00676 0.8213,0.63584 1.35117,1.2187 0.52987,0.58286 0.90078,1.2452 0.39741,0.66234 0.68883,1.45714 0.31793,0.79481 0.71533,1.82806 z m -21.16835,-15.2073 h 10.06755 q 2.14598,0 3.68261,-0.31793 1.53662,-0.31792 2.51688,-1.03325 1.00676,-0.74181 1.48364,-1.90753 0.47689,-1.16572 0.47689,-2.86131 0,-2.99377 -1.90754,-4.26546 -1.88104,-1.29818 -5.64313,-1.29818 h -10.6769 z m 48.61568,15.2073 h -20.95641 v -29.01045 h 20.24108 v 2.11949 h -18.12159 v 10.72989 h 16.98237 v 2.11948 h -16.98237 v 11.9221 h 18.83692 z m 29.43433,0 h -2.54338 l -3.55013,-9.32573 h -14.28003 q -0.76831,2.19896 -1.66909,4.66286 -0.90078,2.43741 -1.72208,4.66287 h -2.25196 q 1.43066,-3.76209 2.80832,-7.36521 1.40416,-3.60313 2.78182,-7.15326 1.37767,-3.57663 2.75533,-7.17975 1.40416,-3.60313 2.83481,-7.33872 h 2.99378 z m -6.70286,-10.99483 -6.72937,-16.13457 -6.38494,16.13457 z m 28.40109,10.99483 h -17.08835 v -29.01045 h 2.11949 v 26.89096 h 14.96886 z"
         id="text6"
         style="font-size:54.2588px;font-family:'Microsoft Yi Baiti';-inkscape-font-specification:'Microsoft Yi Baiti';fill:#ffffff;stroke-width:90.4311"
         transform="scale(0.9824554,1.0178579)"
         aria-label="REAL " />
      <path
         d="M 666.08155,437.75397 H 644.62908 V 408.0568 h 20.72021 v 2.16965 h -18.55056 v 10.98389 h 17.38437 v 2.16965 h -17.38437 v 12.20432 h 19.28282 z m 17.5471,0.54241 q -3.0104,0 -5.26142,-0.62377 -2.25102,-0.6509 -3.7969,-1.81709 -1.51876,-1.19331 -2.33238,-2.84768 -0.81362,-1.68148 -0.94922,-3.76977 h 2.14253 q 0.32545,2.00693 1.22043,3.33584 0.89499,1.32892 2.19678,2.11542 1.32892,0.7865 3.0104,1.11195 1.68148,0.32545 3.57993,0.32545 1.97981,0 3.55282,-0.40682 1.60012,-0.43393 2.71207,-1.22043 1.13906,-0.81362 1.73572,-1.92557 0.59666,-1.13907 0.59666,-2.54934 0,-1.49164 -0.5153,-2.49511 -0.51529,-1.03058 -1.73572,-1.78996 -1.22043,-0.75938 -3.22737,-1.35604 -1.97981,-0.59666 -4.93596,-1.22043 -2.44087,-0.54242 -4.20371,-1.24755 -1.73573,-0.70514 -2.8748,-1.62725 -1.13907,-0.94922 -1.68148,-2.14253 -0.54242,-1.22043 -0.54242,-2.82055 0,-1.73573 0.73226,-3.17313 0.73226,-1.43739 2.06118,-2.46798 1.35603,-1.03059 3.22736,-1.60012 1.89845,-0.56954 4.17659,-0.56954 2.27814,0 4.17659,0.54242 1.89845,0.51529 3.30872,1.51876 1.4374,1.00346 2.30526,2.44086 0.89499,1.4374 1.13907,3.25448 h -2.08829 q -0.29833,-1.19331 -0.97635,-2.22389 -0.67801,-1.03059 -1.76284,-1.76285 -1.05771,-0.75938 -2.54935,-1.16619 -1.46452,-0.43393 -3.36297,-0.43393 -3.98674,0 -6.04791,1.46452 -2.03406,1.46451 -2.03406,4.01386 0,1.16619 0.37969,2.03405 0.37969,0.86787 1.27468,1.573 0.9221,0.67802 2.41374,1.22044 1.49164,0.51529 3.71554,0.97634 1.30179,0.27121 2.68495,0.56954 1.38315,0.29832 2.68495,0.70513 1.32891,0.40682 2.52222,1.00347 1.19331,0.59666 2.06117,1.46452 0.89499,0.86786 1.41028,2.08829 0.54242,1.19331 0.54242,2.84768 0,1.89845 -0.81363,3.49857 -0.7865,1.573 -2.22389,2.73919 -1.41028,1.13907 -3.39009,1.78997 -1.95269,0.62377 -4.25795,0.62377 z m 37.64354,-28.06993 h -10.38723 v 27.52752 h -2.16966 v -27.52752 h -10.27875 v -2.16965 h 22.83564 z m 28.8293,27.52752 h -2.60359 l -3.63417,-9.54649 h -14.61806 q -0.7865,2.25102 -1.7086,4.77324 -0.92211,2.49511 -1.76285,4.77325 h -2.30526 q 1.46452,-3.85114 2.8748,-7.53956 1.43739,-3.68841 2.84767,-7.32259 1.41028,-3.66129 2.82055,-7.34971 1.4374,-3.68841 2.90192,-7.51243 h 3.06464 z m -6.86154,-11.25509 -6.88865,-16.51651 -6.53609,16.51651 z m 31.92107,-16.27243 h -10.38723 v 27.52752 h -2.16965 v -27.52752 h -10.27875 v -2.16965 h 22.83563 z m 26.82239,27.52752 H 780.53093 V 408.0568 h 20.72022 v 2.16965 h -18.55056 v 10.98389 h 17.38437 v 2.16965 h -17.38437 v 12.20432 h 19.28282 z"
         id="text7"
         style="font-size:55.5432px;font-family:'Microsoft Yi Baiti';-inkscape-font-specification:'Microsoft Yi Baiti';fill:#ffffff;stroke-width:92.572"
         aria-label="ESTATE" />
    </g>
  </g>
</svg>
